<svg width="125" height="29" viewBox="0 0 125 29" fill="none" xmlns="http://www.w3.org/2000/svg">
<rect y="0.5" width="125" height="28" rx="14" fill="#696969"/>
<path d="M11.456 9.412C12.0213 9.412 12.5973 9.41733 13.184 9.428C13.7813 9.428 14.3627 9.444 14.928 9.476C15.504 9.49733 16.0373 9.53467 16.528 9.588L16.4 11.348H12.4C12.112 11.348 11.8933 11.4173 11.744 11.556C11.5947 11.6947 11.52 11.8973 11.52 12.164V20.5H9.072V11.668C9.072 10.9853 9.29067 10.4413 9.728 10.036C10.1653 9.62 10.7413 9.412 11.456 9.412ZM9.36 14.084H15.808V15.812H9.36V14.084ZM22.2663 9.3C23.2369 9.3 24.0209 9.40133 24.6183 9.604C25.2263 9.796 25.6689 10.132 25.9462 10.612C26.2343 11.0813 26.3783 11.7373 26.3783 12.58C26.3783 13.092 26.3089 13.5453 26.1703 13.94C26.0423 14.324 25.8236 14.6333 25.5143 14.868C25.2049 15.1027 24.7836 15.252 24.2503 15.316V15.396C24.4423 15.428 24.6396 15.5027 24.8423 15.62C25.0556 15.7373 25.2529 15.9133 25.4343 16.148C25.6156 16.372 25.7489 16.676 25.8343 17.06L26.7943 20.5H24.2183L23.3703 17.14C23.2743 16.7773 23.1303 16.5267 22.9383 16.388C22.7569 16.2493 22.5009 16.18 22.1703 16.18C21.4449 16.18 20.8316 16.18 20.3303 16.18C19.8396 16.1693 19.4236 16.1587 19.0823 16.148C18.7516 16.1373 18.4529 16.1267 18.1863 16.116L18.2343 14.34H22.2183C22.6449 14.34 22.9809 14.2973 23.2263 14.212C23.4823 14.116 23.6583 13.9507 23.7543 13.716C23.8609 13.4813 23.9143 13.156 23.9143 12.74C23.9143 12.3133 23.8609 11.988 23.7543 11.764C23.6583 11.5293 23.4823 11.3693 23.2263 11.284C22.9809 11.188 22.6449 11.14 22.2183 11.14C21.2156 11.14 20.3676 11.1453 19.6743 11.156C18.9809 11.1667 18.5063 11.1827 18.2503 11.204L18.0103 9.46C18.4583 9.40667 18.8796 9.36933 19.2743 9.348C19.6689 9.32667 20.1009 9.316 20.5703 9.316C21.0396 9.30533 21.6049 9.3 22.2663 9.3ZM20.4263 9.46V20.5H18.0103V9.46H20.4263ZM30.6416 9.412C31.239 9.412 31.8416 9.41733 32.4496 9.428C33.0576 9.428 33.655 9.43867 34.2416 9.46C34.8283 9.48133 35.3776 9.51867 35.8896 9.572L35.7776 11.348H31.5376C31.271 11.348 31.0683 11.4173 30.9296 11.556C30.8016 11.6947 30.7376 11.8973 30.7376 12.164V17.796C30.7376 18.0627 30.8016 18.2653 30.9296 18.404C31.0683 18.5427 31.271 18.612 31.5376 18.612H35.7776L35.8896 20.388C35.3776 20.4307 34.8283 20.468 34.2416 20.5C33.655 20.5213 33.0576 20.532 32.4496 20.532C31.8416 20.5427 31.239 20.548 30.6416 20.548C29.9376 20.548 29.367 20.3453 28.9296 19.94C28.503 19.524 28.2896 18.9853 28.2896 18.324V11.636C28.2896 10.964 28.503 10.4253 28.9296 10.02C29.367 9.61467 29.9376 9.412 30.6416 9.412ZM28.5776 13.892H35.1856V15.62H28.5776V13.892ZM39.8916 9.412C40.489 9.412 41.0916 9.41733 41.6996 9.428C42.3076 9.428 42.905 9.43867 43.4916 9.46C44.0783 9.48133 44.6276 9.51867 45.1396 9.572L45.0276 11.348H40.7876C40.521 11.348 40.3183 11.4173 40.1796 11.556C40.0516 11.6947 39.9876 11.8973 39.9876 12.164V17.796C39.9876 18.0627 40.0516 18.2653 40.1796 18.404C40.3183 18.5427 40.521 18.612 40.7876 18.612H45.0276L45.1396 20.388C44.6276 20.4307 44.0783 20.468 43.4916 20.5C42.905 20.5213 42.3076 20.532 41.6996 20.532C41.0916 20.5427 40.489 20.548 39.8916 20.548C39.1876 20.548 38.617 20.3453 38.1796 19.94C37.753 19.524 37.5396 18.9853 37.5396 18.324V11.636C37.5396 10.964 37.753 10.4253 38.1796 10.02C38.617 9.61467 39.1876 9.412 39.8916 9.412ZM37.8276 13.892H44.4356V15.62H37.8276V13.892ZM49.2856 9.46V17.716C49.2856 17.9827 49.3603 18.1853 49.5096 18.324C49.659 18.4627 49.8723 18.532 50.1496 18.532H54.0056L54.1176 20.372C53.3603 20.4573 52.5656 20.5053 51.7336 20.516C50.9123 20.5373 50.091 20.548 49.2696 20.548C48.4696 20.548 47.8616 20.3347 47.4456 19.908C47.0403 19.4707 46.8376 18.916 46.8376 18.244V9.46H49.2856ZM60.7278 9.46C60.9304 9.46 61.1064 9.51867 61.2558 9.636C61.4158 9.75333 61.5224 9.908 61.5758 10.1L64.7758 20.5H62.2798L60.0238 12.388C59.9811 12.2067 59.9384 12.0253 59.8958 11.844C59.8531 11.652 59.8158 11.4707 59.7838 11.3H59.3518C59.3198 11.4707 59.2824 11.652 59.2398 11.844C59.2078 12.0253 59.1651 12.2067 59.1118 12.388L56.8558 20.5H54.3438L57.5598 10.1C57.6131 9.908 57.7144 9.75333 57.8638 9.636C58.0238 9.51867 58.2051 9.46 58.4078 9.46H60.7278ZM62.4237 15.748V17.588H56.6957V15.748H62.4237ZM75.2449 9.46V19.62C75.2449 20.2067 74.9515 20.5 74.3649 20.5H73.0209C72.7542 20.5 72.5515 20.4413 72.4129 20.324C72.2742 20.196 72.1462 20.0093 72.0289 19.764L68.9729 13.972C68.8449 13.7267 68.7169 13.4547 68.5889 13.156C68.4715 12.8573 68.3702 12.5693 68.2849 12.292H68.1089C68.1409 12.58 68.1675 12.8733 68.1889 13.172C68.2102 13.46 68.2209 13.748 68.2209 14.036V20.5H65.9009V10.34C65.9009 9.75333 66.1995 9.46 66.7969 9.46H68.1249C68.3809 9.46 68.5729 9.524 68.7009 9.652C68.8395 9.76933 68.9729 9.95067 69.1009 10.196L72.0609 15.812C72.1889 16.0573 72.3222 16.3293 72.4609 16.628C72.5995 16.9267 72.7329 17.236 72.8609 17.556H73.0529C73.0209 17.236 72.9942 16.9267 72.9729 16.628C72.9622 16.3187 72.9569 16.0147 72.9569 15.716L72.9409 9.46H75.2449ZM81.7678 9.268C82.2904 9.268 82.7331 9.284 83.0958 9.316C83.4691 9.33733 83.8104 9.37467 84.1198 9.428C84.4291 9.48133 84.7491 9.556 85.0798 9.652L84.8878 11.444C84.5358 11.4227 84.2104 11.4067 83.9118 11.396C83.6238 11.3853 83.3091 11.38 82.9678 11.38C82.6371 11.3693 82.2371 11.364 81.7678 11.364C81.2238 11.364 80.7971 11.4707 80.4878 11.684C80.1891 11.8973 79.9758 12.2707 79.8478 12.804C79.7198 13.3267 79.6558 14.052 79.6558 14.98C79.6558 15.908 79.7198 16.6387 79.8478 17.172C79.9758 17.6947 80.1891 18.0627 80.4878 18.276C80.7971 18.4893 81.2238 18.596 81.7678 18.596C82.5038 18.596 83.1224 18.5853 83.6238 18.564C84.1251 18.5427 84.6211 18.5053 85.1118 18.452L85.3198 20.244C84.8078 20.404 84.2851 20.516 83.7518 20.58C83.2184 20.6547 82.5571 20.692 81.7678 20.692C80.6264 20.692 79.7091 20.5107 79.0158 20.148C78.3331 19.7747 77.8371 19.172 77.5278 18.34C77.2291 17.508 77.0798 16.388 77.0798 14.98C77.0798 13.572 77.2291 12.452 77.5278 11.62C77.8371 10.788 78.3331 10.1907 79.0158 9.828C79.7091 9.45467 80.6264 9.268 81.7678 9.268ZM89.126 9.412C89.7233 9.412 90.326 9.41733 90.934 9.428C91.542 9.428 92.1393 9.43867 92.726 9.46C93.3127 9.48133 93.862 9.51867 94.374 9.572L94.262 11.348H90.022C89.7553 11.348 89.5527 11.4173 89.414 11.556C89.286 11.6947 89.222 11.8973 89.222 12.164V17.796C89.222 18.0627 89.286 18.2653 89.414 18.404C89.5527 18.5427 89.7553 18.612 90.022 18.612H94.262L94.374 20.388C93.862 20.4307 93.3127 20.468 92.726 20.5C92.1393 20.5213 91.542 20.532 90.934 20.532C90.326 20.5427 89.7233 20.548 89.126 20.548C88.422 20.548 87.8513 20.3453 87.414 19.94C86.9873 19.524 86.774 18.9853 86.774 18.324V11.636C86.774 10.964 86.9873 10.4253 87.414 10.02C87.8513 9.61467 88.422 9.412 89.126 9.412ZM87.062 13.892H93.67V15.62H87.062V13.892Z" fill="#EEEEEE"/>
<path d="M105.528 9.46V15.94C105.528 17.1133 105.373 18.052 105.064 18.756C104.765 19.4493 104.269 19.9507 103.576 20.26C102.893 20.5693 101.976 20.724 100.824 20.724C99.576 20.724 98.5787 20.5693 97.832 20.26C97.096 19.9507 96.5627 19.4493 96.232 18.756C95.912 18.052 95.752 17.1133 95.752 15.94V9.46H99.224V15.94C99.224 16.5267 99.2613 16.98 99.336 17.3C99.4213 17.62 99.5653 17.844 99.768 17.972C99.9813 18.0893 100.275 18.148 100.648 18.148C101.021 18.148 101.309 18.0893 101.512 17.972C101.715 17.844 101.853 17.62 101.928 17.3C102.013 16.98 102.056 16.5267 102.056 15.94V9.46H105.528ZM111.785 9.3C112.959 9.3 113.876 9.412 114.537 9.636C115.199 9.84933 115.668 10.228 115.945 10.772C116.223 11.316 116.361 12.0787 116.361 13.06C116.361 14.0307 116.228 14.788 115.961 15.332C115.705 15.8653 115.279 16.244 114.681 16.468C114.084 16.6813 113.279 16.788 112.265 16.788C111.732 16.788 111.199 16.7613 110.665 16.708C110.132 16.644 109.631 16.5693 109.161 16.484C108.703 16.388 108.308 16.292 107.977 16.196C107.647 16.0893 107.417 15.9933 107.289 15.908L107.337 14.34C108.031 14.34 108.751 14.34 109.497 14.34C110.244 14.34 110.98 14.34 111.705 14.34C112.025 14.34 112.271 14.308 112.441 14.244C112.612 14.1693 112.729 14.0413 112.793 13.86C112.857 13.668 112.889 13.4013 112.889 13.06C112.889 12.708 112.857 12.436 112.793 12.244C112.729 12.052 112.612 11.924 112.441 11.86C112.271 11.7853 112.025 11.748 111.705 11.748C110.617 11.748 109.689 11.7533 108.921 11.764C108.153 11.7747 107.631 11.796 107.353 11.828L107.113 9.46C107.604 9.40667 108.063 9.36933 108.489 9.348C108.927 9.32667 109.401 9.316 109.913 9.316C110.425 9.30533 111.049 9.3 111.785 9.3ZM110.585 9.46V20.5H107.113V9.46H110.585Z" fill="#FFDA17"/>
</svg>
