<svg width="77" height="24" viewBox="0 0 77 24" fill="none" xmlns="http://www.w3.org/2000/svg">
<path d="M0 10.1197L11.2132 5.19745L2.72991 11.3121L11.2132 17.4268L0 12.5045V10.1197Z" fill="#FF3300"/>
<path d="M26.6824 6.08408C26.6824 7.04204 26.3791 7.93885 25.7725 8.77452C25.1854 9.61019 24.3928 10.3134 23.3948 10.8841C24.7255 11.3325 25.704 12.0459 26.3302 13.0242C26.976 14.0025 27.2989 15.0217 27.2989 16.0815C27.2989 16.7949 27.1619 17.4981 26.8879 18.1911C26.6139 18.8637 26.1932 19.4752 25.6257 20.0255C25.0777 20.5758 24.3733 21.0242 23.5122 21.3707C22.6707 21.6968 21.6825 21.8599 20.5475 21.8599C19.8821 21.8599 19.2265 21.7783 18.5808 21.6153C17.9545 21.4726 17.3675 21.2382 16.8195 20.9121C16.2912 20.586 15.8215 20.1682 15.4105 19.6586C14.9996 19.149 14.6865 18.5274 14.4712 17.7936L16.9076 16.9376C17.025 17.3452 17.2011 17.7121 17.436 18.0382C17.6904 18.344 17.9741 18.6089 18.2872 18.8331C18.6199 19.0369 18.9721 19.2 19.344 19.3223C19.7353 19.4242 20.1169 19.4752 20.4888 19.4752C21.7021 19.4752 22.6512 19.2 23.3361 18.6497C24.021 18.079 24.3635 17.2739 24.3635 16.2344C24.3635 15.7248 24.2754 15.2459 24.0993 14.7975C23.9427 14.3287 23.6883 13.921 23.3361 13.5745C22.9838 13.2076 22.524 12.9223 21.9565 12.7185C21.3889 12.5147 20.6942 12.4127 19.8723 12.4127C19.2853 12.4127 18.659 12.4739 17.9937 12.5962L20.7236 11.4653L18.3459 10.4866C19.4809 10.4662 20.4007 10.3134 21.1052 10.028C21.8293 9.72229 22.3968 9.36561 22.8077 8.95796C23.2187 8.52994 23.5024 8.07134 23.659 7.58217C23.8155 7.09299 23.8938 6.6344 23.8938 6.20637C23.8938 5.32994 23.6003 4.59618 23.0132 4.0051C22.4261 3.41401 21.6629 3.11847 20.7236 3.11847C19.843 3.11847 19.0993 3.39363 18.4927 3.94395C17.8861 4.49427 17.4457 5.44204 17.1718 6.78726L14.6473 6.14522C14.98 4.51465 15.6649 3.21019 16.7021 2.23185C17.7393 1.2535 19.0113 0.764332 20.5181 0.764332C21.7118 0.764332 22.7001 0.92739 23.4829 1.2535C24.2852 1.55924 24.9212 1.96688 25.3909 2.47643C25.8605 2.98599 26.1932 3.55669 26.3889 4.18854C26.5846 4.82038 26.6824 5.45223 26.6824 6.08408Z" fill="#FF3300"/>
<path d="M36.352 22.1307L41.8212 21.8599V24H29.1991L36.352 22.1307Z" fill="#FF3300"/>
<path d="M58.8678 14.186C58.8678 15.5108 58.6819 16.6522 58.3101 17.6102C57.9382 18.5682 57.4294 19.3631 56.7837 19.9949C56.1379 20.6268 55.3747 21.0955 54.4941 21.4013C53.6134 21.707 52.6643 21.8599 51.6467 21.8599C50.6096 21.8599 49.6507 21.707 48.7701 21.4013C47.909 21.0955 47.1556 20.6268 46.5098 19.9949C45.864 19.3631 45.3552 18.5682 44.9834 17.6102C44.6312 16.6522 44.455 15.5108 44.455 14.186V0L44.9834 10.6701L47.273 14.186C47.273 15.1643 47.3806 16 47.5959 16.693C47.8112 17.3656 48.1047 17.9159 48.4765 18.344C48.8679 18.772 49.3278 19.0879 49.8561 19.2917C50.4041 19.4752 51.0009 19.5669 51.6467 19.5669C52.3121 19.5669 52.909 19.4752 53.4373 19.2917C53.9853 19.0879 54.4451 18.772 54.817 18.344C55.2083 17.9159 55.5117 17.3656 55.7269 16.693C55.9422 16 56.0498 15.1643 56.0498 14.186L51.2 4.18854L58.8678 0V14.186Z" fill="#FF3300"/>
<path d="M69.7844 0C70.9586 0 71.986 0.173249 72.8666 0.519746C73.7472 0.84586 74.4713 1.31465 75.0388 1.92612C75.6259 2.5172 76.0662 3.23057 76.3597 4.06624C76.6532 4.88153 76.8 5.76815 76.8 6.72612C76.8 7.70446 76.6532 8.60127 76.3597 9.41656C76.0662 10.2318 75.6259 10.9452 75.0388 11.5567C74.4713 12.1478 73.7472 12.6064 72.8666 12.9325C71.986 13.2586 70.9586 13.4217 69.7844 13.4217H66.6729V21.4013H63.855V2.13308L69.7844 0ZM66.6729 2.38471V11.0369H69.7844C70.6259 11.0369 71.3206 10.9147 71.8686 10.6701C72.4165 10.4051 72.847 10.0688 73.1601 9.66115C73.4928 9.2535 73.7276 8.7949 73.8646 8.28535C74.0016 7.7758 74.0701 7.25605 74.0701 6.72612C74.0701 6.21656 74.0016 5.70701 73.8646 5.19745C73.7276 4.66752 73.4928 4.19873 73.1601 3.79108C72.847 3.36306 72.4165 3.02675 71.8686 2.78217C71.3206 2.5172 70.6259 2.38471 69.7844 2.38471H66.6729Z" fill="#FF3300"/>
</svg>
